# xmcd
#
# Track frame offsets:
#	150
#	12772
#	24747
#	34095
#	44787
#	60215
#	73730
#	84607
#	99167
#	114090
#	125835
#	140837
#	158115
#	170195
#	185722
#	200215
#	214897
#	231380
#	246925
#	259380
#	276222
#	293442
#	302777
#	315050
#
# Disc length: 4335 seconds
#
# Revision: 1
# Processed by: cddbd v1.5.2PL0 Copyright (c) Steve Scherf et al.
# Submitted via: audiograbber 1.83.01
#
DISCID=6910ed18
DTITLE=Various Artist - The Immediate Blues Anthology - CD 2 - Blues Anytime 3
DTITLE=/ Blues Leftovers
DYEAR=1996
DGENRE=Blues
TTITLE0=Cyril Davies and The Rythm and Blues All-Stars - Someday Baby
TTITLE1=The All-Stars featuring Jeff Beck - Steelin'
TTITLE2=The All-Stars featuring Jimmy Page - L.A. Breakdown
TTITLE3=The All-Stars featuring Jeff Beck - Chuckles
TTITLE4=The All-Stars featuring Jimmy Page - Down In The Boots
TTITLE5=The All-Stars featuring Nicky Hopkins - Piano Shuffle
TTITLE6=Eric Clapton and Jimmy Page - Miles Road
TTITLE7=Santa Barbera Machine Head - Porcupine Juice
TTITLE8=Santa Barbera Machine Head - Albert
TTITLE9=Santa Barbera Machine Head - Rubber Monkey
TTITLE10=Stuff Smith - Howlin' For My Darling
TTITLE11=Albert Lee and Tony Colton - The Next Milestone
TTITLE12=Earl Vince and The Valiants - Someone's Gonna Get Their Head Kicked In T
TTITLE12=onight
TTITLE13=Dave Kelly - New Death Matter
TTITLE14=Jo-Ann Kelly - Back Water Blues
TTITLE15=Rod Stewart - So Much To Say
TTITLE16=Dave Kelly - Married Woman Blues
TTITLE17=Albert Lee and Paul Williams - Water On My Fire
TTITLE18=Jo-Ann Kelly - Keep Your Hands Out Of My Pockets
TTITLE19=Dave Kelly - Alabama Woman
TTITLE20=Albert Lee - Crosstown Link
TTITLE21=Dave Kelly - All Night Long
TTITLE22=Simon and Steve - Down and Dirty
TTITLE23=Cyril Davies' Rythm and Blues All-Stars - Not Fade Away
EXTD=
EXTT0=
EXTT1=
EXTT2=
EXTT3=
EXTT4=
EXTT5=
EXTT6=
EXTT7=
EXTT8=
EXTT9=
EXTT10=
EXTT11=
EXTT12=
EXTT13=
EXTT14=
EXTT15=
EXTT16=
EXTT17=
EXTT18=
EXTT19=
EXTT20=
EXTT21=
EXTT22=
EXTT23=
PLAYORDER=
